<svg width="520" height="475" viewBox="0 0 520 475" fill="none" xmlns="http://www.w3.org/2000/svg">
<g clip-path="url(#clip0_44:527)">
<path d="M474.951 181.525H71.3865V406.623H474.951V181.525Z" fill="#838383"/>
<path opacity="0.1" d="M90.1136 284.889C98.9671 279.777 104.731 273.185 102.987 270.164C101.243 267.143 92.6517 268.838 83.7982 273.95C74.9447 279.062 69.1813 285.654 70.9252 288.675C72.6692 291.695 81.2601 290 90.1136 284.889Z" fill="black"/>
<path opacity="0.1" d="M461.128 289.33C462.096 285.745 454.362 280.541 443.856 277.706C433.349 274.871 424.047 275.479 423.08 279.063C422.113 282.648 429.846 287.852 440.353 290.687C450.86 293.522 460.161 292.914 461.128 289.33Z" fill="black"/>
<path d="M222.807 421.189L208.434 474.326H257.651L263.313 469.099L265.491 474.326H318.191C318.191 474.326 323.854 439.918 316.885 437.304C309.916 434.691 222.807 421.189 222.807 421.189Z" fill="#2F2E41"/>
<path d="M278.121 211.692C294.719 211.692 308.174 198.237 308.174 181.639C308.174 165.042 294.719 151.587 278.121 151.587C261.524 151.587 248.069 165.042 248.069 181.639C248.069 198.237 261.524 211.692 278.121 211.692Z" fill="#A0616A"/>
<path d="M255.691 196.666C255.691 196.666 261.353 239.349 252.642 244.14C243.931 248.931 304.472 249.367 304.472 249.367C304.472 249.367 290.97 212.345 297.068 201.021L255.691 196.666Z" fill="#A0616A"/>
<path d="M275.944 236.954C275.944 236.954 260.696 234.676 257.431 227.104L211.483 247.407C211.483 247.407 219.758 307.947 224.549 318.836L218.452 428.158C218.452 428.158 261.135 456.468 318.627 441.224L333 321.014L348.68 249.584L298.479 229.422C298.479 229.422 288.574 236.083 275.944 236.954Z" fill="#FFC882"/>
<path d="M307.738 374.586C307.738 374.586 252.424 372.844 256.344 389.394C260.264 405.945 311.223 388.523 311.223 388.523L307.738 374.586Z" fill="#A0616A"/>
<path d="M253.121 153.212L247.501 150.963C247.501 150.963 259.25 138.028 275.597 139.153L270.999 134.091C270.999 134.091 282.238 129.592 292.454 141.402C297.825 147.611 304.039 154.908 307.912 163.129H313.93L311.419 168.659L320.209 174.189L311.186 173.196C311.724 176.224 311.807 179.316 311.431 182.369C311.044 185.422 309.486 188.206 307.085 190.133C307.085 190.133 300.116 175.708 300.116 173.458V179.082C300.116 179.082 294.497 174.021 294.497 170.647L291.432 174.583L289.9 168.397L270.999 174.583L274.064 169.522L262.315 171.209L266.913 165.023C266.913 165.023 253.631 172.334 253.121 178.52C252.61 184.706 248.722 190.568 248.722 190.568C248.722 190.568 238.307 161.648 253.121 153.212Z" fill="#2F2E41"/>
<path d="M289.663 356.92V364.334C289.663 364.402 289.636 364.468 289.587 364.516C289.539 364.565 289.473 364.592 289.405 364.592H289.221V403.211C289.221 404.28 288.796 405.305 288.041 406.061C287.285 406.816 286.26 407.241 285.191 407.241H261.06C259.992 407.241 258.967 406.816 258.212 406.061C257.456 405.305 257.032 404.28 257.032 403.212V365.947H256.899C256.851 365.947 256.804 365.928 256.77 365.894C256.736 365.86 256.716 365.813 256.716 365.765V361.546C256.716 361.497 256.735 361.451 256.77 361.417C256.804 361.382 256.85 361.363 256.899 361.363H257.032V359.774H256.898C256.847 359.774 256.798 359.753 256.763 359.717C256.727 359.681 256.707 359.633 256.707 359.582V355.42C256.707 355.37 256.727 355.321 256.763 355.286C256.799 355.25 256.847 355.23 256.898 355.23H257.032V353.06H256.895C256.873 353.06 256.851 353.056 256.831 353.047C256.81 353.039 256.792 353.026 256.776 353.011C256.76 352.995 256.748 352.976 256.739 352.956C256.731 352.935 256.726 352.913 256.726 352.891V350.62C256.726 350.575 256.744 350.532 256.776 350.5C256.807 350.468 256.85 350.45 256.895 350.449H257.032V345.851C257.032 344.783 257.456 343.758 258.212 343.003C258.967 342.247 259.992 341.823 261.06 341.823H285.191C286.26 341.823 287.285 342.247 288.04 343.002C288.796 343.758 289.221 344.783 289.221 345.851V356.662H289.405C289.473 356.662 289.539 356.689 289.587 356.738C289.636 356.786 289.663 356.852 289.663 356.92Z" fill="#838383"/>
<path d="M273.166 362.976C275.348 362.976 277.117 361.208 277.117 359.026C277.117 356.844 275.348 355.075 273.166 355.075C270.985 355.075 269.216 356.844 269.216 359.026C269.216 361.208 270.985 362.976 273.166 362.976Z" fill="#F2F2F2"/>
<path d="M335.178 249.584H348.68C348.68 249.584 391.799 343.662 381.346 354.986C370.892 366.31 307.738 397.234 307.738 397.234C307.738 397.234 302.947 373.279 298.592 373.279L342.147 346.275L320.805 295.317L335.178 249.584Z" fill="#FFC882"/>
<path d="M238.487 370.666C238.487 370.666 287.703 396.799 278.557 408.123C269.41 419.447 225.42 388.088 225.42 388.088L238.487 370.666Z" fill="#A0616A"/>
<path d="M217.581 247.842H211.483C211.483 247.842 202.772 256.118 200.159 274.846L174.856 331.231C174.091 332.936 173.71 334.788 173.741 336.656C173.771 338.525 174.213 340.363 175.033 342.042C180.649 353.544 195.429 379.497 217.581 387.217L228.905 395.928C228.905 395.928 227.598 374.586 245.456 374.586L214.967 341.484L226.727 303.156L217.581 247.842Z" fill="#FFC882"/>
<path d="M423.438 0H273.456V115.7H423.438V0Z" fill="#838383"/>
<path d="M320.355 41.6616H299.406V96.8929H320.355V41.6616Z" fill="#D0CDE1"/>
<path d="M358.922 63.0874H337.972V96.8927H358.922V63.0874Z" fill="#D0CDE1"/>
<path d="M397.489 18.8071H376.539V96.8927H397.489V18.8071Z" fill="#D0CDE1"/>
<path d="M348.447 52.1363C354.232 52.1363 358.922 47.4466 358.922 41.6614C358.922 35.8763 354.232 31.1865 348.447 31.1865C342.662 31.1865 337.972 35.8763 337.972 41.6614C337.972 47.4466 342.662 52.1363 348.447 52.1363Z" fill="#C8E1BD"/>
<path d="M237.188 22.2517H87.2061V137.952H237.188V22.2517Z" fill="#838383"/>
<path d="M110.06 114.145C110.06 114.145 111.489 75.5785 140.057 81.7682C168.625 87.9579 211 52.248 211 52.248" fill="#C8E1BD"/>
<path d="M110.298 112.241V38.4404H100.776V112.241V121.287V121.763H223.618V112.241H110.298Z" fill="#D0CDE1"/>
<path d="M252.356 303.181L257.569 309.262C259.506 308.893 261.528 308.459 263.611 307.972L262.114 303.181L265.775 307.451C287.842 302.024 315.195 291.472 315.195 291.472C315.195 291.472 285.665 293.637 263.616 288.82C253.861 286.689 243.824 291.525 239.82 300.672C237.493 305.99 237.859 310.596 246.111 310.596C248.9 310.549 251.681 310.287 254.429 309.814L252.356 303.181Z" fill="#2F2E41"/>
</g>
<defs>
<clipPath id="clip0_44:527">
<rect width="519.855" height="474.326" fill="white"/>
</clipPath>
</defs>
</svg>
