<svg width="447" height="423" viewBox="0 0 447 423" fill="none" xmlns="http://www.w3.org/2000/svg">
<g clip-path="url(#clip0_67:240)">
<path d="M447 420.304H145.357V421.605H447V420.304Z" fill="#838383"/>
<path d="M390.706 199.069C391.287 199.751 391.718 200.548 391.971 201.407C392.224 202.266 392.294 203.169 392.176 204.058C392.058 204.946 391.755 205.799 391.286 206.563C390.818 207.326 390.194 207.983 389.455 208.49L358.238 229.923L344.491 239.087C343.71 239.607 342.764 239.819 341.836 239.68C340.908 239.541 340.064 239.062 339.47 238.336C339.124 237.912 338.873 237.418 338.736 236.889C338.599 236.359 338.579 235.806 338.677 235.268C338.774 234.729 338.988 234.219 339.302 233.771C339.616 233.323 340.024 232.949 340.497 232.674L353.812 224.943L377.048 202.813L362.11 186.769L373.175 178.47L390.706 199.069Z" fill="#A0616A"/>
<path d="M317.297 400.878H309.661L305.125 337.807L324.489 337.254L317.297 400.878Z" fill="#A0616A"/>
<path d="M317.85 421.348C315.814 422.278 314.109 414.749 312.391 416.437C307.587 421.158 300.23 422.186 293.818 420.124L296.062 420.099C295.675 419.975 295.318 419.773 295.011 419.507C294.704 419.24 294.455 418.914 294.278 418.548C294.101 418.182 294 417.784 293.981 417.378C293.963 416.972 294.027 416.566 294.169 416.186C294.34 415.73 294.619 415.323 294.982 415C295.345 414.676 295.781 414.445 296.253 414.327L301.362 413.05L309.384 398.942L317.574 398.388C319.399 400.716 320.673 403.427 321.3 406.318C321.927 409.209 321.89 412.205 321.192 415.079C320.449 418.113 319.302 420.686 317.85 421.348Z" fill="#2F2E41"/>
<path d="M368.142 400.878H360.505L355.97 337.807L375.887 333.935L368.142 400.878Z" fill="#A0616A"/>
<path d="M368.695 421.348C366.659 422.277 364.953 414.748 363.236 416.436C358.431 421.157 351.075 422.185 344.662 420.124L346.907 420.099C346.52 419.975 346.162 419.773 345.855 419.506C345.549 419.24 345.299 418.914 345.122 418.548C344.945 418.182 344.844 417.784 344.826 417.378C344.807 416.972 344.871 416.566 345.014 416.186C345.185 415.73 345.463 415.323 345.826 414.999C346.189 414.675 346.625 414.445 347.097 414.327L352.207 413.049L360.229 398.941L368.971 397.835L369.192 398.196C370.882 400.92 371.972 403.973 372.389 407.152C372.805 410.33 372.539 413.561 371.608 416.629C370.881 418.958 369.891 420.802 368.695 421.348Z" fill="#2F2E41"/>
<path d="M376.8 179.897C369.778 180.874 364.916 184.72 362.936 192.392L350.028 168.559C349.262 167.045 349.068 165.305 349.481 163.659C349.894 162.013 350.887 160.571 352.277 159.597C353.752 158.563 355.566 158.133 357.348 158.394C359.13 158.655 360.745 159.587 361.862 161L376.8 179.897Z" fill="#C8E1BD"/>
<path d="M390.326 331.168C358.941 345.054 326.822 346.763 294.06 337.807C306.024 291.406 320.15 249.45 320.063 214.985L352.152 212.219L357.093 220.051C368.815 238.635 376.906 259.274 380.938 280.872L390.326 331.168Z" fill="#2F2E41"/>
<path d="M337.767 143.616C346.934 143.616 354.365 136.185 354.365 127.018C354.365 117.851 346.934 110.42 337.767 110.42C328.601 110.42 321.17 117.851 321.17 127.018C321.17 136.185 328.601 143.616 337.767 143.616Z" fill="#A0616A"/>
<path d="M356.024 156.34L335.554 157.447L332.235 139.189L348.832 136.424L356.024 156.34Z" fill="#A0616A"/>
<path d="M353.812 214.985L331.385 215.617L320.063 217.198C314.505 198.84 309.827 180.523 321.17 165.192L334.448 151.914L354.365 151.361L354.629 151.512C357.792 153.324 360.243 156.16 361.579 159.551C362.915 162.943 363.055 166.689 361.977 170.171C357.034 186.233 353.86 201.4 353.812 214.985Z" fill="#C8E1BD"/>
<path d="M319.51 266.438L318.119 285.45C318.044 286.468 317.604 287.425 316.88 288.145C316.156 288.864 315.196 289.298 314.177 289.366C313.59 289.405 313.001 289.321 312.448 289.12C311.895 288.919 311.39 288.605 310.966 288.198C310.541 287.791 310.205 287.3 309.981 286.756C309.756 286.213 309.648 285.628 309.662 285.04L310.105 266.438L323.936 213.879L324.489 181.79L339.98 181.237L338.874 218.305L319.51 266.438Z" fill="#A0616A"/>
<path d="M341.64 184.003C335.072 181.332 328.938 182.227 323.383 187.876L324.144 160.783C324.24 159.088 324.943 157.485 326.125 156.267C327.306 155.049 328.887 154.298 330.578 154.151C332.372 153.995 334.159 154.531 335.571 155.649C336.983 156.767 337.914 158.383 338.173 160.166L341.64 184.003Z" fill="#C8E1BD"/>
<path d="M372.899 200.877H322C333.873 169.435 337.702 140.184 322 115.123C322.269 107.596 331.924 101.07 339.421 101.791C348.276 102.643 360.175 109.15 361.834 117.889L372.899 200.877Z" fill="#2F2E41"/>
<path d="M210.685 100.409H208.364V36.8097C208.364 31.9758 207.412 27.1892 205.562 22.7232C203.712 18.2572 201 14.1994 197.582 10.7813C194.164 7.36317 190.106 4.65179 185.64 2.80194C181.174 0.952084 176.388 -1.44859e-05 171.554 1.65307e-10H36.8098C31.9759 -1.06738e-05 27.1893 0.952095 22.7233 2.80195C18.2574 4.65181 14.1995 7.36319 10.7814 10.7813C7.36328 14.1994 4.65189 18.2573 2.80203 22.7232C0.952164 27.1892 5.56982e-05 31.9758 6.10352e-05 36.8097V385.721C5.7223e-05 390.555 0.952163 395.342 2.80203 399.808C4.65189 404.274 7.36328 408.332 10.7814 411.75C14.1995 415.168 18.2574 417.879 22.7233 419.729C27.1893 421.579 31.9759 422.531 36.8098 422.531H171.554C176.388 422.531 181.174 421.579 185.64 419.729C190.106 417.879 194.164 415.168 197.582 411.75C201 408.332 203.712 404.274 205.562 399.808C207.412 395.342 208.364 390.555 208.364 385.721V145.68H210.685V100.409Z" fill="#838383"/>
<path d="M173.039 9.57666H155.45C156.259 11.5597 156.568 13.7112 156.35 15.8417C156.131 17.9722 155.392 20.0162 154.197 21.7938C153.003 23.5713 151.389 25.0278 149.499 26.0349C147.609 27.0421 145.5 27.5689 143.359 27.5691H66.1655C64.0239 27.5689 61.9151 27.0421 60.025 26.0349C58.1349 25.0278 56.5215 23.5713 55.3269 21.7938C54.1324 20.0163 53.3932 17.9722 53.1747 15.8417C52.9562 13.7112 53.2649 11.5597 54.0738 9.57666H37.646C34.0361 9.57666 30.4615 10.2877 27.1264 11.6691C23.7913 13.0506 20.7609 15.0754 18.2083 17.628C15.6557 20.1806 13.6309 23.2109 12.2494 26.5461C10.868 29.8812 10.1569 33.4558 10.1569 37.0657V385.466C10.1569 389.076 10.8679 392.65 12.2494 395.985C13.6309 399.32 15.6557 402.351 18.2083 404.903C20.7609 407.456 23.7913 409.481 27.1264 410.862C30.4615 412.244 34.0361 412.955 37.646 412.955H173.039C176.649 412.955 180.224 412.244 183.559 410.862C186.894 409.481 189.924 407.456 192.477 404.903C195.029 402.351 197.054 399.32 198.436 395.985C199.817 392.65 200.528 389.076 200.528 385.466V37.0657C200.528 29.7751 197.632 22.7832 192.477 17.628C187.322 12.4728 180.33 9.57665 173.039 9.57666Z" fill="white"/>
<path d="M176.754 63.999H33.9316V186.501H176.754V63.999Z" fill="#E6E6E6"/>
<path d="M76.3137 212.046C82.0853 212.046 86.7641 207.367 86.7641 201.596C86.7641 195.824 82.0853 191.146 76.3137 191.146C70.5421 191.146 65.8633 195.824 65.8633 201.596C65.8633 207.367 70.5421 212.046 76.3137 212.046Z" fill="#C8E1BD"/>
<path d="M81.5391 200.725H77.1848V196.371H75.4431V200.725H71.0887V202.467H75.4431V206.821H77.1848V202.467H81.5391V200.725Z" fill="white"/>
<path d="M131.469 212.046C137.24 212.046 141.919 207.367 141.919 201.596C141.919 195.824 137.24 191.146 131.469 191.146C125.697 191.146 121.018 195.824 121.018 201.596C121.018 207.367 125.697 212.046 131.469 212.046Z" fill="#C8E1BD"/>
<path d="M136.694 202.467V200.725H126.243V202.467H136.694Z" fill="white"/>
<path d="M110.669 79.2771H99.3828C98.9859 79.2771 98.6053 79.4348 98.3247 79.7154C98.044 79.996 97.8864 80.3766 97.8864 80.7735V85.7275C97.8864 86.1243 98.044 86.5049 98.3247 86.7856C98.6053 87.0662 98.9859 87.2238 99.3828 87.2238H101.253V94.6466H108.799V87.2238H110.669C111.066 87.2238 111.447 87.0662 111.727 86.7856C112.008 86.5049 112.166 86.1243 112.166 85.7275V80.7735C112.166 80.3766 112.008 79.996 111.727 79.7154C111.447 79.4348 111.066 79.2771 110.669 79.2771Z" fill="#C8E1BD"/>
<path d="M121.974 124.616C115.062 114.501 111.528 102.459 111.879 90.2129C111.886 89.9304 111.794 89.6543 111.62 89.4317C111.446 89.2091 111.2 89.0536 110.924 88.9917V86.8511H99.0039V88.9619H98.8397C98.679 88.9621 98.52 88.994 98.3717 89.0556C98.2234 89.1173 98.0887 89.2076 97.9752 89.3213C97.8618 89.435 97.7719 89.57 97.7106 89.7184C97.6494 89.8669 97.6179 90.026 97.6181 90.1866C97.6182 90.2163 97.6193 90.246 97.6215 90.2757C98.5606 103.366 95.3895 115.106 88.1083 125.494C87.6893 126.091 87.4753 126.807 87.4983 127.536L88.8017 167.854C88.833 168.754 89.2104 169.606 89.8552 170.234C90.5 170.861 91.3622 171.216 92.262 171.223H119.223C120.134 171.216 121.005 170.853 121.651 170.213C122.298 169.572 122.669 168.705 122.686 167.795L123.188 128.65C123.203 127.213 122.779 125.806 121.974 124.616Z" fill="#838383"/>
<path opacity="0.2" d="M108.316 80.8914C108.316 81.7476 107.976 82.5687 107.371 83.1741C106.765 83.7796 105.944 84.1197 105.088 84.1197C104.232 84.1197 103.411 83.7796 102.805 83.1741C102.2 82.5687 101.86 81.7476 101.86 80.8914" fill="black"/>
<path d="M117.706 138.008H114.441C114.129 135.985 113.104 134.141 111.551 132.809C109.997 131.477 108.019 130.744 105.972 130.744C103.926 130.744 101.947 131.477 100.393 132.809C98.8401 134.141 97.8148 135.985 97.5031 138.008H94.2381C93.8907 138.008 93.5474 138.083 93.2318 138.228C92.9162 138.373 92.6357 138.585 92.4095 138.849C92.1833 139.112 92.0168 139.422 91.9214 139.756C91.8259 140.09 91.8039 140.44 91.8567 140.784L95.403 163.835H115.767L120.074 140.861C120.139 140.513 120.127 140.155 120.038 139.813C119.949 139.47 119.786 139.151 119.56 138.879C119.334 138.606 119.051 138.387 118.73 138.236C118.41 138.086 118.06 138.008 117.706 138.008V138.008Z" fill="#C8E1BD"/>
<path d="M176.754 236.431H33.9316V358.932H176.754V236.431Z" fill="#E6E6E6"/>
<path d="M76.3137 384.478C82.0853 384.478 86.7641 379.799 86.7641 374.027C86.7641 368.256 82.0853 363.577 76.3137 363.577C70.5421 363.577 65.8633 368.256 65.8633 374.027C65.8633 379.799 70.5421 384.478 76.3137 384.478Z" fill="#C8E1BD"/>
<path d="M81.5391 373.157H77.1848V368.802H75.4431V373.157H71.0887V374.898H75.4431V379.253H77.1848V374.898H81.5391V373.157Z" fill="white"/>
<path d="M131.469 384.478C137.24 384.478 141.919 379.799 141.919 374.027C141.919 368.256 137.24 363.577 131.469 363.577C125.697 363.577 121.018 368.256 121.018 374.027C121.018 379.799 125.697 384.478 131.469 384.478Z" fill="#C8E1BD"/>
<path d="M136.694 374.898V373.156H126.243V374.898H136.694Z" fill="white"/>
<path d="M133.459 323.458L133.538 323.458C136.227 323.48 138.86 322.692 141.094 321.195C143.329 319.699 145.06 317.564 146.062 315.068C149.222 307.08 149.961 298.339 148.189 289.934C146.417 281.528 142.212 273.83 136.097 267.797C129.982 261.763 122.227 257.662 113.799 256.004C105.37 254.346 96.6399 255.203 88.695 258.47C80.7502 261.737 73.9419 267.269 69.1177 274.376C64.2936 281.484 61.6667 289.854 61.5643 298.443C61.4619 307.033 63.8885 315.463 68.5418 322.684C73.1951 329.904 79.8697 335.597 87.7343 339.052C90.1787 340.134 92.8931 340.453 95.5215 339.965C98.15 339.478 100.57 338.207 102.464 336.321C106.526 332.237 111.356 328.999 116.675 326.791C121.995 324.583 127.699 323.45 133.459 323.458Z" fill="white"/>
<path d="M110.966 310.203C118.952 310.203 125.426 303.729 125.426 295.743C125.426 287.757 118.952 281.283 110.966 281.283C102.98 281.283 96.5059 287.757 96.5059 295.743C96.5059 303.729 102.98 310.203 110.966 310.203Z" fill="#F9A825"/>
</g>
<defs>
<clipPath id="clip0_67:240">
<rect width="447" height="422.531" fill="white"/>
</clipPath>
</defs>
</svg>
